<?xml version="1.0" encoding="UTF-8"?>
<svg width="405px" height="441px" viewBox="0 0 405 441" version="1.1" xmlns="http://www.w3.org/2000/svg" xmlns:xlink="http://www.w3.org/1999/xlink">
    <!-- Generator: Sketch 64 (93537) - https://sketch.com -->
    <title>Group</title>
    <desc>Created with Sketch.</desc>
    <g id="Page-1" stroke="none" stroke-width="1" fill="none" fill-rule="evenodd">
        <g id="248" transform="translate(-391.000000, -189.000000)">
            <g id="Group" transform="translate(391.402838, 189.145086)">
                <path d="M6.68216244,11.3809137 C2.29916244,54.0389137 1.28516244,97.3969137 4.52816244,140.358914 C15.3291624,125.266914 25.5001624,117.252914 25.5001624,117.252914 C27.2541624,155.425914 33.1731624,211.902914 35.6191624,218.815914 C36.6301624,221.674914 26.2981624,220.272914 14.7701624,215.142914 C22.0691624,251.197914 32.8671624,286.492914 47.7281624,320.337914 C49.1861624,319.383914 50.2291624,318.874914 50.2291624,318.874914 C50.2291624,318.874914 114.607162,356.385914 126.676162,369.148914 C126.676162,369.148914 97.3261624,371.195914 66.0911624,357.545914 C75.7311624,374.984914 86.6181624,391.812914 98.7691624,407.433914 C105.654162,416.284914 113.968162,426.320914 122.328162,433.894914 L129.611162,440.491914 L137.664162,434.863914 C211.950162,382.946914 269.346162,319.872914 314.396162,245.723914 C306.093162,243.300914 298.428162,240.609914 292.502162,237.698914 C292.502162,237.698914 300.927162,229.666914 325.071162,227.539914 C338.775162,203.385914 351.271162,178.116914 362.696162,151.727914 L365.572162,145.083914 L361.170162,139.336914 C308.397162,70.4259137 229.727162,31.4449137 146.488162,12.9559137 C116.972162,6.39991369 86.6371624,2.32691369 56.4421624,0.747913689 C44.0061624,0.096913689 30.7481624,-0.331086311 18.2851624,0.333913689 L7.75916244,0.895913689 L6.68216244,11.3809137" id="Fill-4" fill="#161715"></path>
                <path d="M184.664162,372.787914 C115.426162,379.401914 55.9651624,342.096914 54.7551624,341.873914 C40.8621624,339.312914 29.1901624,331.084914 29.5031624,316.218914 C28.8361624,309.329914 28.3961624,307.051914 26.9761624,303.745914 C-0.0518375621,240.793914 -16.3278376,177.365914 25.5001624,117.252914 C25.5001624,117.252914 11.7471624,50.0809137 44.5591624,31.5819137 C54.5761624,25.9349137 79.9591624,40.0289137 97.4141624,42.6689137 C97.4141624,42.6689137 112.936162,20.3209137 131.524162,16.5809137 C185.101162,32.1499137 253.508162,50.8969137 330.888162,111.291914 C342.195162,120.115914 340.102162,134.456914 327.458162,187.453914 C324.520162,199.771914 319.745162,214.111914 313.714162,229.139914 C298.216162,232.250914 292.502162,237.698914 292.502162,237.698914 C296.770162,239.794914 301.943162,241.777914 307.602162,243.627914 C287.380162,289.390914 257.567162,337.501914 233.428162,352.440914 C215.046162,363.816914 202.845162,366.542914 184.664162,372.787914" id="Fill-5" fill="#161715"></path>
                <path d="M205.964162,65.1059137 C205.944162,65.1159137 175.432162,76.1629137 170.242162,108.634914 C196.538162,65.8189137 254.566162,66.5799137 280.094162,105.983914 C267.404162,101.386914 244.585162,96.1709137 220.610162,105.527914 C246.910162,102.750914 285.835162,110.447914 293.908162,138.056914 C293.908162,138.056914 294.826162,146.979914 292.406162,160.211914 C289.986162,173.444914 274.005162,182.232914 259.754162,182.811914 C245.505162,183.390914 195.777162,173.805914 188.946162,170.821914 C182.114162,167.835914 175.450162,161.845914 176.307162,161.002914 C177.163162,160.158914 182.669162,143.226914 182.669162,143.226914 L184.390162,119.662914 C184.390162,119.662914 178.157162,127.469914 174.454162,130.386914 C170.752162,133.304914 146.233162,158.287914 125.298162,162.611914 C104.364162,166.935914 96.8391624,166.610914 96.8391624,166.610914 C96.8391624,166.610914 72.6821624,132.734914 72.4641624,131.384914 C72.2471624,130.035914 72.7141624,114.397914 72.7141624,114.397914 C67.4221624,63.9159137 130.822162,20.0289137 205.964162,65.1059137 Z M69.7191624,220.852914 C63.8041624,203.731914 62.6841624,182.004914 68.6411624,173.067914 C74.8621624,176.706914 84.7571624,180.877914 97.1771624,182.090914 L97.1751624,182.089914 C102.054162,182.828914 110.324162,182.061914 112.797162,181.928914 C115.271162,181.795914 125.516162,189.486914 121.658162,198.105914 C117.799162,206.723914 99.3401624,232.424914 95.5321624,234.241914 C91.7241624,236.059914 84.2051624,234.884914 84.2051624,234.884914 L78.0481624,231.790914 C78.0481624,231.790914 75.0311624,230.444914 69.7201624,220.854914 L69.7191624,220.852914 L69.7191624,220.852914 Z" id="Fill-6" fill="#DBC09D"></path>
                <path d="M273.063162,96.9409137 C275.607162,99.6879137 277.965162,102.697914 280.094162,105.983914 C280.094162,105.983914 250.208162,91.4069137 226.739162,91.7169137 C203.269162,92.0269137 177.517162,110.342914 177.517162,110.342914 C195.722162,89.8059137 212.001162,80.5379137 233.972162,81.6689137 C255.339162,82.7709137 272.153162,96.2029137 273.063162,96.9409137" id="Fill-7" fill="#FBEBD6"></path>
                <path d="M293.559162,136.882914 C302.019162,165.163914 305.287162,198.922914 279.628162,209.870914 C256.764162,219.626914 216.947162,222.191914 186.089162,195.837914 C186.376162,195.958914 224.296162,204.320914 250.589162,190.963914 C250.589162,190.963914 193.604162,192.597914 161.989162,164.437914 L161.985162,164.434914 C174.142162,154.510914 182.254162,139.236914 184.390162,119.662914 C184.390162,119.662914 148.645162,152.393914 120.052162,155.054914 C135.116162,149.649914 153.288162,133.283914 155.415162,127.433914 C120.219162,148.429914 87.8701624,144.223914 72.7141624,114.397914 C72.7141624,114.397914 59.4381624,81.8919137 70.3211624,61.4009137 C35.5221624,98.0239137 45.5351624,161.596914 97.1751624,182.089914 C97.1781624,182.090914 103.148162,184.201914 113.085162,184.937914 C113.085162,184.937914 114.319162,201.883914 106.837162,218.976914 C106.837162,218.976914 107.872162,200.355914 103.179162,191.425914 C101.910162,213.144914 95.2721624,249.938914 69.7201624,220.854914 C74.2431624,233.941914 81.5651624,244.336914 90.6761624,244.265914 C101.015162,244.183914 120.758162,233.356914 127.457162,192.372914 C127.457162,192.372914 136.757162,226.747914 111.741162,252.845914 C142.205162,237.798914 148.191162,201.724914 143.577162,174.390914 C132.138162,178.084914 118.931162,178.552914 104.752162,175.355914 C140.704162,171.949914 171.753162,139.691914 184.390162,119.662914 C187.062162,133.673914 184.119162,151.068914 184.119162,151.068914 C190.814162,147.548914 202.592162,137.963914 202.592162,137.963914 C196.947162,153.581914 188.128162,161.853914 188.128162,161.853914 C246.595162,182.670914 273.282162,177.303914 273.282162,177.303914 C241.606162,171.077914 222.382162,156.370914 222.382162,156.370914 C233.851162,158.738914 283.460162,167.574914 289.694162,155.751914 C294.664162,146.324914 293.616162,137.316914 293.559162,136.882914" id="Fill-8" fill="#937A68"></path>
                <path d="M31.4351624,136.971914 C43.7411624,147.632914 50.7611624,161.000914 52.7551624,175.598914 C54.3361624,187.171914 52.7591624,199.517914 48.1551624,211.899914 C48.1551624,211.899914 46.6861624,186.146914 36.0391624,169.599914 C36.0391624,169.599914 40.6231624,215.353914 37.5121624,239.028914 C34.3991624,262.701914 26.5701624,260.670914 21.0891624,241.897914 C15.6101624,223.126914 6.93416244,164.545914 31.4351624,136.971914" id="Fill-9" fill="#937A68"></path>
                <path d="M80.4461624,264.137914 C87.7971624,264.880914 88.5731624,263.617914 114.647162,277.128914 C140.722162,290.640914 176.823162,317.248914 189.864162,327.555914 C202.906162,337.861914 218.854162,350.987914 218.854162,350.987914 C218.854162,350.987914 157.121162,340.456914 124.841162,320.413914 C124.841162,320.413914 138.966162,339.295914 170.704162,355.049914 C170.704162,355.049914 117.683162,352.501914 87.7961624,332.900914 C61.8651624,315.894914 44.7561624,287.619914 58.6081624,270.187914 C58.5541624,270.754914 57.1741624,288.873914 96.1861624,319.410914 C96.1861624,319.410914 58.1251624,265.135914 80.4461624,264.137914" id="Fill-10" fill="#DBC09D"></path>
                <path d="M80.4451624,264.137914 C82.3831624,264.333914 83.8641624,264.390914 85.4711624,264.615914 C72.1481624,274.324914 98.8051624,312.728914 123.763162,328.592914 C113.270162,316.514914 110.398162,309.490914 102.440162,296.216914 C113.138162,306.321914 161.289162,328.648914 174.328162,333.332914 C175.798162,333.859914 178.873162,337.875914 181.378162,342.527914 C162.444162,337.405914 140.276162,329.996914 124.840162,320.412914 C124.840162,320.412914 138.965162,339.295914 170.704162,355.048914 C170.704162,355.048914 117.683162,352.500914 87.7961624,332.900914 C61.8651624,315.895914 44.7561624,287.619914 58.6091624,270.187914 C58.5541624,270.754914 57.1741624,288.873914 96.1861624,319.410914 C96.1861624,319.410914 58.1251624,265.135914 80.4451624,264.137914" id="Fill-11" fill="#937A68"></path>
                <path d="M242.562162,275.261914 C242.562162,275.261914 268.785162,273.199914 284.995162,272.001914 C287.258162,271.833914 289.243162,271.843914 290.981162,271.992914 C286.802162,278.310914 282.406162,284.475914 277.796162,290.476914 L277.635162,290.488914 L277.767162,290.514914 C274.502162,294.763914 271.131162,298.927914 267.659162,303.006914 C266.755162,302.824914 265.845162,302.613914 264.924162,302.372914 C256.299162,300.116914 246.280162,292.389914 242.562162,275.261914" id="Fill-12" fill="#FFFFFE"></path>
                <path d="M159.959162,200.009914 C182.117162,249.381914 229.450162,231.778914 230.682162,278.874914 C230.805162,283.605914 231.490162,291.621914 220.311162,287.261914 C209.134162,282.901914 195.283162,272.153914 189.031162,266.896914 C189.031162,266.896914 191.729162,274.930914 205.894162,286.447914 C220.059162,297.966914 222.201162,303.489914 222.030162,305.756914 C221.132162,317.561914 204.100162,303.814914 200.276162,300.915914 C177.919162,283.957914 155.758162,267.254914 152.758162,227.394914 C159.314162,240.462914 171.761162,253.344914 181.036162,258.611914 C166.299162,232.862914 161.265162,213.829914 159.959162,200.009914" id="Fill-13" fill="#937A68"></path>
                <path d="M373.128162,396.162914 C386.730162,383.993914 396.320162,368.155914 400.848162,350.473914 C413.433162,301.315914 383.714162,251.141914 334.557162,238.556914 C320.810162,235.036914 306.373162,234.727914 292.502162,237.698914 C262.618162,231.157914 230.173162,232.638914 205.136162,252.071914 C195.451162,259.587914 185.467162,271.516914 181.090162,283.070914 C163.673162,318.914914 165.080162,360.377914 192.009162,391.168914 C195.285162,394.914914 198.866162,398.390914 202.705162,401.557914 C210.025162,407.594914 218.323162,412.467914 227.091162,416.075914 C247.573162,424.500914 272.014162,426.463914 292.699162,417.647914 C303.373162,419.911914 314.374162,420.271914 325.177162,418.671914 C337.468162,417.261914 349.285162,413.051914 359.795162,406.542914 C364.395162,403.692914 369.404162,400.099914 373.128162,396.162914" id="Fill-14" fill="#161715"></path>
                <path d="M317.748162,301.418914 C310.296162,282.865914 292.353162,264.963914 263.785162,259.940914 C251.444162,257.769914 237.118162,258.004914 220.800162,261.627914 C235.870162,253.793914 250.287162,250.653914 263.466162,251.129914 C294.048162,252.234914 317.953162,272.822914 327.846162,299.475914 C336.789162,323.567914 334.285162,352.616914 314.910162,376.709914 C309.666162,383.230914 303.186162,389.389914 295.363162,394.988914 C307.409162,381.459914 317.465162,365.303914 321.541162,347.405914 C322.067162,345.096914 322.493162,342.758914 322.812162,340.394914 C324.472162,328.049914 323.191162,314.967914 317.748162,301.418914" id="Fill-15" fill="#FFFFFE"></path>
                <path d="M327.032162,263.879914 C321.696162,262.513914 316.340162,261.789914 311.059162,261.660914 C308.185162,259.358914 305.139162,257.264914 301.922162,255.429914 C310.663162,254.238914 319.762162,254.619914 328.833162,256.811914 C329.162162,256.889914 329.490162,256.971914 329.819162,257.055914 C368.813162,267.040914 392.330162,306.745914 382.346162,345.736914 C378.984162,358.870914 372.245162,370.245914 363.301162,379.179914 C370.239162,371.131914 375.475162,361.406914 378.289162,350.414914 C387.865162,313.017914 365.860162,274.949914 328.975162,264.404914 C328.332162,264.221914 327.684162,264.045914 327.032162,263.879914" id="Fill-16" fill="#FFFFFE"></path>
                <path d="M258.537162,339.709914 C263.905162,330.168914 260.521162,318.081914 250.980162,312.714914 C248.712162,311.438914 246.304162,310.657914 243.871162,310.335914 C236.763162,309.394914 229.485162,312.384914 225.156162,318.433914 L226.239162,316.265914 C230.681162,308.368914 238.860162,303.894914 247.313162,303.814914 C251.442162,303.776914 255.637162,304.784914 259.494162,306.954914 C271.248162,313.566914 275.415162,328.457914 268.803162,340.211914 C262.191162,351.963914 247.301162,356.132914 235.548162,349.520914 L233.497162,348.229914 C242.677162,352.150914 253.531162,348.609914 258.537162,339.709914" id="Fill-17" fill="#FFFFFE"></path>
                <path d="M79.8561624,93.5829137 C76.2621624,111.067914 82.3461624,118.426914 90.2761624,120.150914 L90.2761624,120.154914 L90.3161624,120.160914 C92.3311624,120.593914 94.4641624,120.664914 96.5871624,120.446914 C109.473162,120.212914 139.752162,115.419914 165.226162,79.0349137 C165.226162,79.0349137 148.720162,90.0369137 129.666162,96.6639137 C144.739162,81.2659137 160.803162,61.1979137 153.983162,52.7199137 C144.807162,41.3149137 86.5491624,61.0219137 79.8561624,93.5829137" id="Fill-18" fill="#FBEBD6"></path>
                <path d="M281.104162,125.085914 C281.104162,125.085914 257.637162,107.292914 228.753162,114.021914 C199.869162,120.750914 214.395162,135.287914 226.565162,139.020914 C238.735162,142.754914 307.240162,152.696914 281.104162,125.085914" id="Fill-19" fill="#FBEBD6"></path>
                <path d="M104.072162,277.228914 C104.072162,277.228914 149.205162,302.091914 160.120162,310.731914 C171.035162,319.371914 165.868162,322.915914 148.330162,313.877914 C130.791162,304.838914 124.121162,298.711914 110.736162,291.057914 C97.3491624,283.404914 94.4351624,272.198914 104.072162,277.228914" id="Fill-20" fill="#FBEBD6"></path>
                <path d="M73.5071624,186.960914 C73.5071624,186.960914 67.3441624,201.204914 74.4111624,215.142914 C81.4801624,229.081914 87.0981624,219.823914 87.4821624,213.126914 C87.8661624,206.429914 84.3601624,170.120914 73.5071624,186.960914" id="Fill-21" fill="#FBEBD6"></path>
                <path d="M31.9831624,172.619914 C31.9831624,172.619914 33.9831624,219.348914 32.9301624,230.482914 C31.8781624,241.617914 23.8691624,236.320914 22.2231624,220.555914 C20.6101624,205.117914 29.6841624,148.326914 31.9831624,172.619914" id="Fill-22" fill="#DBC09D"></path>
            </g>
        </g>
    </g>
</svg>